<?xml version="1.0" encoding="iso-8859-1"?>
<!-- Generator: Adobe Illustrator 19.0.0, SVG Export Plug-In . SVG Version: 6.00 Build 0)  -->
<svg version="1.1" id="Layer_1" xmlns="http://www.w3.org/2000/svg" xmlns:xlink="http://www.w3.org/1999/xlink" x="0px" y="0px"
	 viewBox="0 0 512 512" style="enable-background:new 0 0 512 512;" xml:space="preserve">
<g>
	<g>
		<path d="M256,0C114.62,0,0,114.62,0,256s114.62,256,256,256c141.389,0,256-114.62,256-256S397.389,0,256,0z M256,486.4
			C128.956,486.4,25.6,383.044,25.6,256S128.956,25.6,256,25.6S486.4,128.956,486.4,256S383.044,486.4,256,486.4z"/>
	</g>
</g>
<g>
	<g>
		<path d="M371.2,247.467H264.533V115.2c0-7.074-5.726-12.8-12.8-12.8s-12.8,5.726-12.8,12.8V256
			c0,7.074,9.993,17.067,17.067,17.067h115.2c7.074,0,12.8-5.726,12.8-12.8C384,253.193,378.274,247.467,371.2,247.467z"/>
	</g>
</g>
<g>
	<g>
		<rect x="238.933" y="51.2" width="25.6" height="25.6"/>
	</g>
</g>
<g>
	<g>
		<rect x="238.933" y="435.2" width="25.6" height="25.6"/>
	</g>
</g>
<g>
	<g>
		<rect x="51.2" y="247.467" width="25.6" height="25.6"/>
	</g>
</g>
<g>
	<g>
		<rect x="435.2" y="247.467" width="25.6" height="25.6"/>
	</g>
</g>
<g>
</g>
<g>
</g>
<g>
</g>
<g>
</g>
<g>
</g>
<g>
</g>
<g>
</g>
<g>
</g>
<g>
</g>
<g>
</g>
<g>
</g>
<g>
</g>
<g>
</g>
<g>
</g>
<g>
</g>
</svg>
