<?xml version="1.0" standalone="no"?>
<!DOCTYPE svg PUBLIC "-//W3C//DTD SVG 20010904//EN"
 "http://www.w3.org/TR/2001/REC-SVG-20010904/DTD/svg10.dtd">
<svg version="1.0" xmlns="http://www.w3.org/2000/svg"
 width="728.000000pt" height="542.000000pt" viewBox="0 0 728.000000 542.000000"
 preserveAspectRatio="xMidYMid meet">

<g transform="translate(0.000000,542.000000) scale(0.100000,-0.100000)"
fill="#000000" stroke="none">
<path d="M4625 5341 c-356 -83 -608 -346 -680 -708 -49 -252 -60 -577 -60
-1820 0 -530 -2 -963 -5 -963 -3 0 -25 37 -49 83 -24 45 -58 107 -76 137 -17
30 -62 111 -100 180 -37 69 -84 154 -105 190 -20 36 -70 126 -111 200 -40 74
-102 187 -137 250 -36 63 -137 246 -224 405 -180 325 -350 633 -568 1025 -81
146 -175 317 -210 380 -34 63 -93 169 -130 235 -37 66 -92 165 -123 220 -31
55 -61 112 -68 128 l-12 27 -679 0 -678 0 0 -75 0 -75 98 0 c258 0 475 -79
558 -204 86 -131 86 -131 82 -2131 -4 -1566 -6 -1721 -22 -1844 -21 -164 -45
-232 -100 -288 -32 -31 -52 -43 -86 -48 -59 -9 -106 8 -295 100 -191 94 -279
119 -395 112 -135 -8 -238 -57 -306 -146 -50 -65 -68 -136 -62 -243 5 -75 11
-99 39 -155 60 -118 173 -210 313 -255 80 -26 333 -36 445 -18 186 31 426 150
523 258 123 139 201 328 237 578 43 294 44 329 48 1868 3 1225 6 1485 17 1470
13 -19 203 -357 341 -609 40 -71 91 -164 115 -205 39 -68 132 -234 205 -365
15 -27 62 -111 103 -185 41 -74 125 -225 187 -335 62 -110 126 -225 142 -255
16 -30 78 -140 138 -245 123 -217 153 -272 188 -335 13 -25 77 -139 142 -255
64 -115 194 -347 288 -515 94 -168 188 -336 210 -375 21 -38 63 -113 92 -165
29 -52 84 -151 122 -220 l70 -125 74 -1 c41 -1 79 1 86 3 10 4 13 474 16 2141
4 2183 5 2240 42 2367 50 174 173 228 341 150 41 -19 108 -55 148 -80 174
-108 360 -131 509 -62 65 30 146 112 183 186 26 51 29 65 29 161 0 99 -2 110
-32 171 -62 125 -184 224 -340 276 -78 25 -375 28 -478 4z"/>
<path d="M5775 3718 c-270 -50 -484 -187 -641 -409 -60 -86 -142 -252 -167
-339 -66 -229 -63 -517 8 -765 85 -300 339 -600 632 -748 304 -154 711 -154
993 1 323 176 516 456 580 837 15 89 15 348 0 445 -29 189 -99 371 -191 496
-98 135 -278 283 -444 366 -184 92 -346 128 -567 127 -84 -1 -175 -5 -203 -11z
m317 -188 c172 -65 300 -249 407 -588 192 -606 182 -1149 -26 -1332 -81 -71
-123 -85 -253 -85 -114 0 -116 0 -186 38 -116 62 -209 169 -299 343 -90 175
-153 368 -195 594 -31 162 -38 476 -16 614 38 228 134 369 284 417 81 25 215
25 284 -1z"/>
<path d="M4920 355 l0 -215 1138 2 1137 3 3 213 2 212 -1140 0 -1140 0 0 -215z"/>
</g>
</svg>
