<?xml version="1.0" standalone="no"?>
<!DOCTYPE svg PUBLIC "-//W3C//DTD SVG 20010904//EN"
 "http://www.w3.org/TR/2001/REC-SVG-20010904/DTD/svg10.dtd">
<svg version="1.0" xmlns="http://www.w3.org/2000/svg"
 width="1600.000000pt" height="1600.000000pt" viewBox="0 0 1600.000000 1600.000000"
 preserveAspectRatio="xMidYMid meet">

<g transform="translate(0.000000,1600.000000) scale(0.100000,-0.100000)"
fill="#000000" stroke="none">
<path d="M10415 15823 c-44 -2 -82 -9 -86 -15 -4 -5 -28 -13 -55 -16 -27 -2
-52 -9 -55 -15 -4 -5 -28 -12 -55 -15 -27 -3 -55 -11 -62 -19 -7 -7 -27 -13
-43 -13 -17 0 -37 -7 -45 -15 -9 -8 -24 -15 -35 -15 -10 0 -19 -4 -19 -10 0
-5 -16 -12 -35 -16 -19 -3 -35 -10 -35 -15 0 -5 -9 -9 -20 -9 -11 0 -23 -7
-26 -15 -4 -8 -14 -15 -24 -15 -9 0 -28 -9 -41 -20 -13 -11 -29 -24 -35 -29
-6 -5 -20 -12 -32 -15 -12 -4 -20 -12 -17 -17 4 -5 -1 -9 -9 -9 -9 0 -16 -4
-16 -10 0 -5 -11 -12 -25 -16 -14 -3 -25 -12 -25 -20 0 -8 -9 -14 -20 -14 -11
0 -20 -7 -20 -15 0 -8 -9 -15 -20 -15 -11 0 -20 -7 -20 -15 0 -8 -9 -15 -20
-15 -11 0 -20 -7 -20 -15 0 -8 -7 -15 -15 -15 -8 0 -15 -7 -15 -15 0 -8 -9
-15 -20 -15 -11 0 -20 -5 -20 -10 0 -15 -64 -80 -79 -80 -6 0 -11 -7 -11 -15
0 -8 -4 -15 -10 -15 -5 0 -10 -4 -10 -10 0 -10 -20 -37 -52 -72 -10 -10 -18
-22 -18 -26 0 -4 -9 -14 -20 -22 -11 -8 -20 -20 -20 -27 0 -7 -4 -13 -10 -13
-5 0 -10 -4 -10 -10 0 -5 -8 -18 -17 -28 -33 -35 -53 -62 -53 -72 0 -6 -3 -10
-7 -10 -5 0 -13 -10 -19 -23 -17 -35 -49 -92 -54 -97 -14 -14 -30 -52 -30 -70
0 -11 -4 -20 -10 -20 -5 0 -10 -7 -10 -15 0 -8 -4 -15 -9 -15 -5 0 -12 -13
-16 -30 -4 -16 -11 -30 -16 -30 -5 0 -9 -8 -9 -18 0 -22 -22 -72 -32 -72 -5 0
-8 -7 -8 -15 0 -8 -4 -15 -10 -15 -5 0 -10 -13 -10 -29 0 -16 -4 -31 -8 -33
-12 -5 -62 -145 -62 -174 0 -13 -4 -24 -10 -24 -5 0 -10 -13 -10 -30 0 -16 -4
-30 -10 -30 -5 0 -10 -20 -10 -45 0 -25 -4 -45 -10 -45 -5 0 -10 -11 -10 -24
0 -14 -5 -37 -10 -52 -6 -15 -13 -43 -16 -62 -3 -19 -10 -46 -15 -59 -5 -14
-9 -40 -9 -59 0 -19 -4 -34 -10 -34 -6 0 -10 -27 -10 -60 0 -33 -4 -60 -9 -60
-5 0 -12 -39 -15 -87 -4 -49 -11 -135 -16 -193 -5 -58 -13 -170 -19 -250 -6
-80 -15 -167 -21 -195 -12 -57 -19 -233 -26 -612 -3 -160 -8 -263 -14 -263
-14 0 -12 -27 3 -33 9 -4 9 -7 0 -14 -17 -12 -22 -628 -28 -3853 -4 -2006 -3
-2670 6 -2687 13 -25 6 -53 -14 -53 -8 0 -21 25 -32 60 -10 33 -22 60 -27 60
-4 0 -8 11 -8 25 0 14 -4 25 -10 25 -5 0 -10 9 -10 20 0 11 -4 20 -10 20 -5 0
-10 14 -10 30 0 17 -4 30 -9 30 -5 0 -12 12 -16 27 -3 15 -15 45 -26 67 -10
22 -19 48 -19 57 0 10 -4 21 -10 24 -5 3 -10 17 -10 31 0 13 -4 24 -9 24 -5 0
-12 12 -16 28 -8 34 -47 116 -57 120 -5 2 -8 17 -8 33 0 16 -4 29 -10 29 -5 0
-10 7 -10 15 0 8 -4 15 -10 15 -5 0 -10 14 -10 30 0 17 -4 30 -10 30 -5 0 -10
11 -10 24 0 14 -4 27 -8 30 -5 3 -17 32 -28 65 -10 34 -22 61 -26 61 -5 0 -8
11 -8 25 0 14 -4 25 -10 25 -5 0 -10 7 -10 15 0 8 -16 48 -35 89 -19 41 -35
82 -35 91 0 8 -4 15 -10 15 -5 0 -10 14 -10 30 0 17 -4 30 -10 30 -5 0 -10 7
-10 15 0 8 -4 15 -10 15 -5 0 -10 14 -10 30 0 17 -4 30 -9 30 -5 0 -12 13 -16
30 -4 16 -11 30 -16 30 -5 0 -9 14 -9 30 0 17 -4 30 -10 30 -5 0 -10 14 -10
30 0 17 -4 30 -10 30 -5 0 -10 7 -10 15 0 8 -4 23 -10 33 -17 31 -60 132 -60
142 0 6 -4 10 -10 10 -5 0 -10 9 -10 20 0 11 -4 20 -10 20 -5 0 -10 11 -10 24
0 14 -4 28 -10 31 -5 3 -10 17 -10 31 0 13 -4 24 -9 24 -5 0 -12 13 -16 30 -4
16 -11 32 -16 35 -5 4 -9 17 -9 31 0 13 -4 24 -10 24 -5 0 -10 14 -10 31 0 17
-4 28 -10 24 -5 -3 -10 1 -10 10 0 9 -5 26 -12 38 -7 12 -13 28 -14 35 -1 7
-12 33 -23 58 -12 24 -21 48 -21 54 0 5 -4 10 -10 10 -5 0 -10 14 -10 30 0 17
-4 30 -10 30 -5 0 -10 7 -10 16 0 18 -52 127 -62 132 -5 2 -8 17 -8 33 0 16
-4 29 -10 29 -5 0 -10 14 -10 30 0 17 -4 30 -10 30 -5 0 -10 13 -10 29 0 16
-3 31 -7 33 -13 5 -43 68 -43 89 0 10 -4 19 -8 19 -4 0 -14 20 -21 45 -7 25
-17 45 -22 45 -5 0 -9 14 -9 30 0 17 -4 30 -10 30 -5 0 -10 7 -10 16 0 19 -50
128 -62 132 -4 2 -8 17 -8 33 0 16 -4 29 -10 29 -5 0 -10 14 -10 30 0 17 -4
30 -9 30 -5 0 -12 12 -15 26 -9 36 -48 118 -58 122 -4 2 -8 17 -8 33 0 16 -4
29 -10 29 -5 0 -10 11 -10 25 0 14 -4 25 -10 25 -5 0 -10 9 -10 20 0 11 -4 20
-8 20 -5 0 -17 27 -28 60 -10 33 -22 60 -26 60 -5 0 -8 11 -8 25 0 14 -4 25
-10 25 -5 0 -10 13 -10 29 0 16 -3 31 -7 33 -19 8 -76 151 -66 162 4 3 1 6 -5
6 -7 0 -12 9 -12 20 0 11 -4 20 -10 20 -5 0 -10 11 -10 25 0 14 -4 25 -10 25
-5 0 -10 6 -10 14 0 8 -11 37 -25 64 -14 28 -25 57 -25 66 0 9 -4 16 -10 16
-5 0 -10 11 -10 25 0 14 -4 25 -10 25 -5 0 -10 14 -10 30 0 17 -4 30 -10 30
-5 0 -10 5 -10 12 0 6 -11 34 -24 62 -14 29 -30 71 -38 94 -7 23 -16 42 -20
42 -5 0 -8 14 -8 30 0 17 -4 30 -10 30 -5 0 -10 9 -10 19 0 21 -50 124 -62
129 -5 2 -8 15 -8 28 0 13 -4 24 -10 24 -5 0 -10 14 -10 30 0 17 -4 30 -10 30
-5 0 -10 14 -10 30 0 17 -4 30 -9 30 -5 0 -12 14 -16 30 -4 17 -11 30 -16 30
-5 0 -9 14 -9 30 0 17 -4 30 -10 30 -5 0 -10 7 -10 15 0 8 -4 15 -10 15 -5 0
-10 14 -10 30 0 17 -3 30 -8 30 -4 0 -20 38 -36 85 -16 47 -33 85 -37 85 -5 0
-9 9 -9 20 0 11 -4 20 -10 20 -5 0 -10 11 -10 25 0 14 -3 25 -8 25 -4 0 -16
27 -26 60 -11 33 -23 60 -28 60 -4 0 -8 14 -8 30 0 17 -4 30 -10 30 -5 0 -10
9 -10 20 0 11 -4 20 -10 20 -5 0 -10 11 -10 25 0 14 -4 25 -10 25 -5 0 -10 14
-10 30 0 17 -4 30 -9 30 -5 0 -12 14 -16 30 -4 17 -10 30 -15 30 -4 0 -14 20
-21 45 -7 25 -17 45 -21 45 -4 0 -8 14 -8 30 0 17 -4 30 -10 30 -5 0 -10 11
-10 25 0 14 -4 25 -9 25 -5 0 -12 13 -16 30 -4 16 -11 32 -16 35 -5 4 -9 17
-9 31 0 13 -4 24 -10 24 -5 0 -10 9 -10 20 0 11 -4 20 -10 20 -5 0 -10 11 -10
25 0 14 -4 25 -10 25 -5 0 -10 14 -10 30 0 17 -4 30 -8 30 -5 0 -14 19 -21 42
-7 22 -19 48 -27 55 -8 8 -14 23 -14 34 0 10 -4 19 -10 19 -5 0 -10 14 -10 30
0 17 -4 30 -10 30 -5 0 -10 9 -10 20 0 10 -11 39 -25 64 -14 25 -25 54 -25 65
0 12 -4 21 -10 21 -5 0 -10 14 -10 30 0 17 -4 30 -10 30 -5 0 -10 13 -10 29 0
16 -4 31 -8 33 -10 4 -49 86 -58 122 -3 14 -10 26 -15 26 -5 0 -9 14 -9 30 0
17 -4 30 -10 30 -5 0 -10 7 -10 15 0 8 -4 15 -10 15 -5 0 -10 14 -10 30 0 17
-4 30 -10 30 -5 0 -10 11 -10 25 0 14 -7 28 -15 31 -8 4 -15 17 -15 29 0 13
-4 27 -10 30 -5 3 -10 17 -10 31 0 13 -4 24 -10 24 -5 0 -10 7 -10 15 0 8 -4
23 -9 33 -24 45 -39 87 -35 94 3 4 0 8 -5 8 -6 0 -11 4 -11 9 0 5 -5 22 -12
38 -6 15 -13 37 -15 48 -2 11 -8 22 -13 23 -6 2 -10 10 -10 18 0 8 -4 14 -10
14 -5 0 -10 14 -10 30 0 17 -4 30 -9 30 -5 0 -12 11 -15 25 -4 14 -20 55 -36
91 -17 35 -30 71 -30 79 0 8 -4 15 -10 15 -5 0 -10 10 -10 23 0 13 -4 27 -8
33 -5 5 -17 29 -26 54 -30 80 -41 100 -51 100 -5 0 -3 5 5 10 10 6 11 10 3 10
-7 0 -13 7 -13 15 0 8 -4 15 -10 15 -5 0 -10 14 -10 30 0 17 -4 30 -8 30 -5 0
-16 25 -26 55 -9 30 -21 57 -26 60 -6 4 -10 17 -10 31 0 13 -4 24 -10 24 -5 0
-10 9 -10 20 0 11 -4 20 -10 20 -5 0 -10 14 -10 30 0 17 -4 30 -9 30 -5 0 -12
12 -15 28 -10 40 -50 136 -58 140 -5 2 -8 17 -8 33 0 16 -4 29 -10 29 -5 0
-10 9 -10 20 0 11 -4 20 -10 20 -5 0 -10 11 -10 25 0 14 -4 25 -9 25 -5 0 -12
14 -16 30 -4 17 -11 30 -16 30 -5 0 -9 14 -9 30 0 17 -4 30 -10 30 -5 0 -10
14 -10 30 0 17 -4 30 -10 30 -5 0 -10 11 -10 25 0 14 -3 25 -8 25 -7 0 -19 24
-48 100 -9 25 -21 49 -26 54 -4 6 -8 20 -8 33 0 13 -4 23 -10 23 -5 0 -10 9
-10 19 0 11 -4 23 -10 26 -5 3 -10 15 -10 26 0 10 -3 19 -8 19 -4 0 -16 27
-26 60 -11 33 -23 60 -28 60 -4 0 -8 7 -8 15 0 8 -4 15 -10 15 -5 0 -10 14
-10 30 0 17 -4 30 -10 30 -5 0 -10 11 -10 24 0 14 -4 27 -8 30 -5 3 -17 32
-28 65 -10 34 -22 61 -26 61 -5 0 -8 11 -8 25 0 14 -4 25 -10 25 -5 0 -10 14
-10 30 0 17 -4 30 -10 30 -5 0 -10 7 -10 15 0 8 -3 15 -8 15 -4 0 -16 27 -26
60 -11 33 -23 60 -28 60 -4 0 -8 9 -8 20 0 11 -4 20 -10 20 -5 0 -10 11 -10
25 0 14 -4 25 -10 25 -5 0 -10 14 -10 30 0 17 -4 30 -8 30 -5 0 -17 27 -28 60
-10 33 -22 60 -26 60 -5 0 -8 11 -8 25 0 14 -4 25 -10 25 -5 0 -10 13 -10 29
0 16 -6 31 -15 35 -20 7 -2924 7 -2952 0 -23 -6 -23 -7 -23 -215 0 -115 3
-210 8 -210 37 -7 85 -9 267 -15 118 -4 213 -11 216 -16 4 -6 37 -13 75 -16
38 -3 75 -11 82 -19 8 -8 36 -13 68 -13 41 0 54 -4 54 -15 0 -11 11 -15 40
-15 22 0 40 -4 40 -10 0 -5 18 -13 40 -16 22 -4 40 -10 40 -14 0 -5 13 -11 30
-15 17 -4 30 -10 30 -15 0 -5 10 -12 22 -16 20 -6 31 -13 63 -41 7 -7 20 -13
29 -13 8 0 29 -13 46 -30 17 -16 37 -30 45 -30 8 0 15 -7 15 -15 0 -8 4 -15 8
-15 14 0 52 -36 52 -49 0 -6 6 -11 14 -11 8 0 16 -7 20 -15 3 -8 12 -15 21
-15 8 0 15 -7 15 -15 0 -8 5 -15 10 -15 6 0 10 -7 10 -15 0 -8 5 -15 10 -15 6
0 10 -7 10 -15 0 -8 4 -15 9 -15 5 0 12 -13 16 -30 4 -16 11 -30 16 -30 5 0 9
-7 9 -15 0 -8 5 -15 10 -15 6 0 10 -7 10 -15 0 -8 9 -30 19 -48 11 -19 27 -61
36 -93 10 -33 21 -67 26 -76 5 -10 9 -36 9 -58 0 -22 5 -40 10 -40 6 0 10 -30
10 -70 0 -38 4 -70 9 -70 5 0 11 -35 14 -77 13 -226 28 -433 34 -473 3 -25 8
-2144 11 -4710 4 -5000 3 -5131 -48 -5870 -5 -69 -12 -181 -15 -250 -4 -69
-11 -129 -16 -135 -5 -5 -9 -46 -9 -92 0 -49 -4 -83 -10 -83 -5 0 -10 -9 -10
-20 0 -31 -20 -112 -36 -143 -8 -16 -14 -37 -14 -47 0 -10 -5 -22 -10 -25 -6
-3 -10 -17 -10 -31 0 -13 -4 -24 -10 -24 -5 0 -10 -13 -10 -30 0 -16 -4 -30
-10 -30 -5 0 -10 -7 -10 -15 0 -8 -4 -15 -9 -15 -5 0 -22 -20 -38 -45 -15 -25
-31 -45 -35 -45 -5 0 -8 -7 -8 -15 0 -8 -4 -15 -10 -15 -5 0 -10 -7 -10 -15 0
-9 -9 -15 -25 -15 -16 0 -25 -6 -25 -15 0 -11 -11 -15 -35 -15 -22 0 -38 -6
-41 -15 -9 -22 -134 -22 -134 0 0 11 -12 15 -45 15 -33 0 -45 4 -45 15 0 9 -9
15 -21 15 -11 0 -27 7 -35 15 -9 8 -24 15 -34 15 -10 0 -20 7 -24 15 -3 8 -15
15 -26 15 -11 0 -20 4 -20 10 0 5 -11 12 -24 16 -14 3 -27 12 -30 20 -3 8 -14
14 -25 14 -10 0 -21 7 -25 15 -3 8 -12 15 -21 15 -9 0 -21 5 -28 10 -47 40
-61 50 -70 50 -5 0 -20 11 -32 24 -12 13 -32 27 -43 31 -12 3 -22 11 -22 16 0
5 -7 9 -15 9 -8 0 -15 7 -15 15 0 8 -9 15 -20 15 -11 0 -23 7 -26 15 -4 8 -15
15 -25 15 -10 0 -19 7 -19 15 0 8 -9 15 -20 15 -11 0 -20 7 -20 15 0 10 -10
15 -30 15 -18 0 -33 6 -36 15 -4 8 -15 15 -25 15 -10 0 -19 7 -19 15 0 10 -11
15 -35 15 -24 0 -35 5 -35 15 0 10 -10 15 -30 15 -20 0 -30 5 -30 15 0 11 -12
15 -45 15 -33 0 -45 4 -45 15 0 11 -12 15 -45 15 -33 0 -45 4 -45 15 0 13 -26
15 -175 15 -149 0 -175 -2 -175 -15 0 -12 -13 -15 -55 -15 -42 0 -55 -3 -55
-15 0 -10 -11 -15 -35 -15 -24 0 -35 -5 -35 -15 0 -10 -10 -15 -34 -15 -21 0
-36 -6 -40 -15 -3 -8 -12 -15 -20 -15 -7 0 -16 -7 -20 -15 -3 -8 -12 -15 -21
-15 -8 0 -15 -4 -15 -9 0 -5 -9 -13 -20 -16 -11 -3 -20 -13 -20 -21 0 -8 -7
-14 -15 -14 -8 0 -15 -5 -15 -11 0 -13 -38 -49 -52 -49 -4 0 -8 -7 -8 -15 0
-8 -4 -15 -10 -15 -5 0 -10 -5 -10 -11 0 -7 -10 -21 -22 -33 -13 -12 -30 -35
-38 -51 -8 -17 -21 -38 -29 -47 -8 -10 -10 -18 -5 -18 5 0 4 -4 -2 -8 -13 -9
-57 -100 -61 -127 -2 -11 -8 -21 -13 -23 -6 -2 -10 -24 -10 -48 0 -24 -4 -44
-10 -44 -5 0 -10 -25 -10 -56 0 -30 -4 -63 -9 -73 -18 -33 -22 -378 -6 -466 8
-44 15 -92 15 -107 0 -16 5 -28 10 -28 6 0 10 -20 10 -45 0 -25 4 -45 8 -45 4
0 14 -21 22 -48 7 -26 24 -68 37 -93 13 -26 23 -52 23 -58 0 -6 5 -11 10 -11
6 0 10 -13 10 -30 0 -16 5 -30 10 -30 6 0 10 -7 10 -15 0 -8 5 -15 10 -15 6 0
10 -6 10 -13 0 -7 16 -36 35 -64 19 -29 35 -54 35 -56 0 -3 25 -30 55 -61 30
-31 55 -61 55 -66 0 -6 5 -10 10 -10 6 0 10 -7 10 -15 0 -8 6 -15 14 -15 8 0
16 -7 20 -15 3 -8 12 -15 21 -15 8 0 14 -4 12 -9 -2 -9 24 -34 63 -61 12 -8
28 -20 34 -26 7 -6 22 -15 34 -18 12 -4 22 -11 22 -16 0 -4 11 -11 25 -14 14
-4 25 -11 25 -16 0 -6 9 -10 19 -10 11 0 26 -6 33 -13 7 -8 30 -17 51 -21 20
-4 37 -11 37 -16 0 -6 18 -10 40 -10 29 0 40 -4 40 -15 0 -11 11 -15 43 -15
53 0 88 -10 81 -21 -5 -9 87 -11 456 -9 177 0 216 3 223 15 5 10 25 15 62 15
29 0 55 5 57 11 2 6 32 13 66 16 43 4 62 10 62 19 0 8 11 14 26 14 14 0 32 7
40 15 9 8 26 15 40 15 13 0 24 4 24 9 0 5 13 12 30 16 16 4 30 10 30 15 0 5
14 11 30 15 17 4 30 10 30 15 0 4 12 11 26 14 15 4 32 12 40 19 34 31 44 37
59 37 9 0 18 7 21 15 4 8 15 15 25 15 10 0 32 13 49 30 17 16 40 30 51 30 11
0 22 7 25 15 4 8 13 15 20 15 8 0 17 6 20 14 3 8 15 16 26 19 11 3 17 10 13
16 -3 7 2 11 14 11 12 0 21 7 21 15 0 8 6 15 13 15 14 0 47 35 47 50 0 6 7 10
15 10 8 0 15 7 15 15 0 8 9 15 20 15 11 0 20 7 20 15 0 8 5 15 10 15 6 0 10 7
10 15 0 8 7 15 15 15 8 0 15 7 15 15 0 8 9 15 20 15 13 0 20 7 20 18 0 10 9
24 20 32 11 8 20 18 20 22 0 8 22 38 53 70 9 10 17 27 17 37 0 11 9 23 20 26
11 3 20 11 20 16 0 15 54 123 63 127 4 2 7 10 7 18 0 8 5 14 10 14 6 0 10 7
10 15 0 8 5 15 10 15 6 0 10 14 10 30 0 17 4 30 9 30 5 0 12 13 16 30 4 16 11
30 16 30 5 0 9 7 9 15 0 8 5 15 10 15 6 0 10 14 10 30 0 17 5 30 10 30 6 0 10
11 10 25 0 14 5 25 10 25 6 0 10 13 10 28 0 15 4 32 9 37 13 15 61 158 61 183
0 12 5 22 10 22 6 0 10 20 10 45 0 25 5 45 10 45 6 0 10 10 10 22 0 24 27 123
41 150 5 10 9 36 9 57 0 22 5 43 10 46 6 3 10 31 10 61 0 30 5 54 10 54 6 0
10 30 10 70 0 40 4 70 10 70 6 0 10 37 10 90 0 53 4 90 10 90 6 0 10 21 10 48
1 26 5 79 11 117 12 79 26 239 37 430 5 72 10 126 12 120 5 -12 15 252 28 711
5 183 12 336 16 342 3 6 7 1855 7 4109 0 2254 4 4107 9 4118 l8 20 7 -20 c4
-11 15 -37 26 -58 10 -22 19 -47 19 -58 0 -10 5 -19 10 -19 6 0 10 -13 10 -30
0 -16 4 -30 9 -30 5 0 12 -13 16 -30 4 -16 10 -30 14 -30 3 0 13 -20 20 -45 7
-25 17 -45 22 -45 5 0 9 -13 9 -29 0 -16 4 -31 8 -33 9 -4 82 -178 82 -195 0
-7 5 -13 10 -13 6 0 10 -11 10 -25 0 -14 5 -25 10 -25 6 0 10 -13 10 -30 0
-16 4 -30 9 -30 5 0 12 -13 16 -30 4 -16 10 -30 15 -30 4 0 14 -20 21 -45 7
-25 17 -45 21 -45 4 0 8 -13 8 -30 0 -16 5 -30 10 -30 6 0 10 -4 10 -10 0 -5
11 -34 25 -64 14 -30 25 -60 25 -65 0 -6 5 -11 10 -11 6 0 10 -11 10 -25 0
-14 5 -25 10 -25 6 0 10 -13 10 -30 0 -16 4 -30 9 -30 5 0 17 -27 27 -60 10
-33 21 -60 26 -60 4 0 8 -7 8 -15 0 -8 5 -15 10 -15 6 0 10 -13 10 -30 0 -16
5 -30 10 -30 6 0 10 -8 10 -18 0 -22 22 -72 33 -72 4 0 7 -11 7 -24 0 -14 4
-27 9 -31 5 -3 12 -19 16 -35 4 -17 11 -30 16 -30 5 0 9 -11 9 -25 0 -14 5
-25 10 -25 6 0 10 -13 10 -30 0 -16 5 -30 10 -30 6 0 10 -13 10 -30 0 -16 3
-30 8 -30 7 0 29 -45 53 -112 7 -21 17 -38 21 -38 4 0 8 -13 8 -30 0 -16 4
-30 9 -30 5 0 12 -12 16 -27 10 -40 49 -123 57 -123 5 0 8 -13 8 -30 0 -16 5
-30 10 -30 6 0 10 -11 10 -25 0 -14 5 -25 10 -25 6 0 10 -7 10 -15 0 -8 16
-49 35 -91 19 -41 35 -82 35 -90 0 -8 5 -14 10 -14 6 0 10 -13 10 -30 0 -16 4
-30 8 -30 4 0 14 -20 21 -45 7 -25 17 -45 21 -45 5 0 11 -14 15 -30 4 -16 10
-30 15 -30 4 0 14 -20 21 -45 7 -25 17 -45 21 -45 4 0 8 -13 8 -30 0 -16 4
-30 9 -30 4 0 21 -38 36 -85 16 -47 32 -85 37 -85 4 0 8 -9 8 -20 0 -11 5 -20
10 -20 6 0 10 -11 10 -25 0 -14 3 -25 8 -25 4 0 16 -27 26 -60 11 -33 23 -60
28 -60 4 0 8 -13 8 -30 0 -16 5 -30 10 -30 6 0 10 -9 10 -19 0 -11 5 -23 10
-26 6 -3 10 -15 10 -26 0 -10 5 -19 10 -19 6 0 10 -4 10 -10 0 -5 11 -34 25
-64 14 -30 25 -64 25 -75 0 -12 5 -21 10 -21 6 0 10 -9 10 -20 0 -11 5 -20 10
-20 6 0 10 -13 10 -30 0 -16 5 -30 10 -30 6 0 10 -11 10 -24 0 -13 3 -26 8
-28 13 -6 42 -69 42 -94 0 -13 5 -24 10 -24 6 0 10 -7 10 -15 0 -8 5 -15 10
-15 6 0 10 -13 10 -30 0 -16 4 -30 8 -30 5 0 17 -27 27 -60 10 -33 21 -60 25
-60 5 0 14 -20 21 -45 7 -25 17 -45 21 -45 4 0 8 -13 8 -30 0 -16 5 -30 10
-30 6 0 10 -11 10 -25 0 -14 4 -25 9 -25 5 0 12 -13 16 -30 4 -16 11 -30 16
-30 5 0 9 -13 9 -30 0 -16 5 -30 10 -30 6 0 10 -7 10 -15 0 -8 5 -15 10 -15 6
0 10 -13 10 -30 0 -16 4 -30 9 -30 5 0 12 -12 16 -27 3 -16 20 -56 36 -91 16
-34 29 -69 29 -77 0 -8 5 -15 10 -15 6 0 10 -13 10 -30 0 -16 5 -30 10 -30 6
0 10 -11 10 -25 0 -14 5 -25 10 -25 6 0 10 -4 10 -10 0 -17 34 -90 42 -90 5 0
8 -11 8 -25 0 -14 5 -25 10 -25 6 0 10 -13 10 -30 0 -16 5 -30 10 -30 6 0 10
-6 10 -12 0 -7 12 -35 25 -63 14 -27 25 -56 25 -62 0 -7 5 -13 10 -13 6 0 10
-13 10 -30 0 -16 5 -30 10 -30 6 0 10 -11 10 -25 0 -14 5 -25 10 -25 6 0 10
-7 10 -16 0 -8 16 -48 35 -88 19 -40 35 -81 35 -90 0 -9 5 -16 10 -16 6 0 10
-13 10 -30 0 -16 3 -30 8 -30 4 0 13 -15 21 -32 7 -18 19 -47 27 -65 8 -17 14
-36 14 -42 0 -6 5 -11 10 -11 6 0 10 -13 10 -30 0 -16 5 -30 10 -30 6 0 10
-13 10 -30 0 -16 4 -30 9 -30 5 0 15 -20 22 -45 7 -25 17 -45 21 -45 4 0 11
-18 14 -40 4 -22 10 -40 15 -40 5 0 9 -9 9 -20 0 -11 5 -20 10 -20 6 0 10 -11
10 -25 0 -14 4 -25 8 -25 4 0 14 -20 21 -45 7 -25 17 -45 21 -45 5 0 11 -13
15 -30 4 -16 11 -32 16 -35 5 -4 9 -17 9 -31 0 -13 5 -24 10 -24 6 0 10 -13
10 -30 0 -16 5 -30 10 -30 6 0 10 -6 10 -14 0 -8 5 -16 11 -18 6 -2 12 -16 12
-31 0 -15 3 -27 7 -27 5 0 11 -14 15 -30 4 -17 10 -30 14 -30 3 0 8 -12 9 -27
1 -16 7 -29 12 -31 6 -2 10 -15 10 -28 0 -13 5 -24 10 -24 6 0 10 -9 10 -20 0
-11 4 -20 8 -20 4 0 14 -17 21 -37 16 -45 39 -101 52 -125 5 -10 9 -25 9 -33
0 -8 5 -15 10 -15 6 0 10 -11 10 -25 0 -14 3 -25 8 -25 4 0 16 -28 27 -62 11
-35 28 -71 37 -80 10 -10 18 -29 18 -43 0 -14 5 -25 10 -25 6 0 10 -13 10 -30
0 -16 4 -30 9 -30 5 0 12 -12 16 -27 4 -16 20 -55 36 -88 16 -33 29 -68 29
-77 0 -10 5 -18 10 -18 6 0 10 -11 10 -25 0 -14 5 -25 10 -25 6 0 10 -7 10
-16 0 -9 11 -38 25 -66 14 -27 25 -61 25 -74 0 -13 5 -24 10 -24 6 0 10 -12
10 -26 0 -14 4 -23 10 -19 6 4 10 -5 10 -19 0 -14 5 -26 10 -26 6 0 10 -5 10
-12 0 -6 11 -34 24 -62 14 -29 30 -71 38 -94 7 -23 16 -42 20 -42 5 0 8 -11 8
-25 0 -14 3 -25 8 -25 4 0 13 -19 20 -42 8 -24 24 -67 38 -96 13 -29 24 -59
24 -68 0 -8 4 -12 10 -9 6 4 10 -7 10 -24 0 -17 4 -31 8 -31 5 0 17 -27 27
-60 10 -33 21 -60 25 -60 5 0 14 -20 21 -45 7 -25 17 -45 21 -45 4 0 8 -11 8
-25 0 -14 3 -25 8 -25 4 0 13 -19 20 -42 8 -24 24 -67 38 -96 13 -29 24 -59
24 -67 0 -8 5 -15 10 -15 6 0 10 -11 10 -25 0 -14 4 -25 9 -25 4 0 14 -20 21
-45 7 -25 16 -45 21 -45 4 0 10 -14 14 -30 4 -17 11 -30 16 -30 5 0 9 -13 9
-30 0 -16 5 -30 10 -30 6 0 10 -11 10 -25 0 -14 5 -25 10 -25 6 0 10 -9 10
-20 0 -11 4 -20 8 -20 5 0 17 -27 28 -60 10 -33 22 -60 26 -60 5 0 8 -11 8
-25 0 -14 5 -25 10 -25 6 0 10 -13 10 -29 0 -16 4 -31 8 -33 10 -4 49 -86 58
-122 3 -14 10 -26 15 -26 5 0 9 -13 9 -30 0 -16 4 -30 9 -30 5 0 15 -20 22
-45 7 -25 16 -45 20 -45 3 0 14 -27 25 -60 10 -33 22 -60 26 -60 5 0 8 -11 8
-25 0 -14 5 -25 10 -25 6 0 10 -13 10 -30 0 -16 5 -30 10 -30 6 0 10 -7 10
-15 0 -8 13 -43 29 -77 16 -35 33 -75 36 -91 4 -15 11 -27 16 -27 5 0 9 -13 9
-30 0 -16 5 -30 10 -30 6 0 10 -7 10 -15 0 -8 4 -15 8 -15 5 0 17 -27 27 -60
10 -33 22 -60 27 -60 4 0 8 -11 8 -25 0 -14 5 -25 10 -25 6 0 10 -13 10 -30 0
-16 5 -30 10 -30 6 0 10 -9 10 -20 0 -11 5 -20 10 -20 6 0 10 -8 10 -19 0 -10
11 -39 25 -65 14 -26 25 -56 25 -67 0 -10 5 -19 10 -19 6 0 10 -13 10 -30 0
-16 5 -30 10 -30 6 0 10 -7 10 -15 0 -8 4 -15 8 -15 4 0 16 -26 27 -57 11 -32
23 -61 28 -64 4 -3 9 -16 10 -27 1 -12 5 -22 9 -22 4 0 8 -9 8 -20 0 -11 5
-20 10 -20 6 0 10 -13 10 -30 0 -16 5 -30 10 -30 6 0 10 -8 10 -19 0 -10 11
-39 25 -65 14 -26 25 -56 25 -67 0 -10 5 -19 10 -19 6 0 10 -9 10 -20 0 -11 5
-20 10 -20 6 0 10 -11 10 -25 0 -14 5 -25 10 -25 6 0 10 -5 10 -11 0 -6 6 -25
14 -42 8 -18 20 -47 27 -64 8 -18 17 -33 21 -33 5 0 8 -13 8 -30 0 -16 5 -30
10 -30 6 0 10 -10 10 -23 0 -13 4 -27 8 -32 5 -6 15 -26 22 -45 19 -52 40
-103 51 -122 5 -10 9 -25 9 -33 0 -8 5 -15 10 -15 6 0 10 -11 10 -24 0 -13 3
-26 8 -28 8 -4 52 -103 59 -136 3 -12 9 -22 14 -22 5 0 9 -11 9 -25 0 -14 5
-25 10 -25 6 0 10 -13 10 -30 0 -16 4 -30 9 -30 5 0 12 -12 15 -26 9 -36 48
-118 58 -122 4 -2 8 -17 8 -33 0 -16 5 -29 10 -29 6 0 10 -8 10 -18 0 -10 9
-36 19 -58 11 -22 23 -52 26 -67 4 -15 11 -27 16 -27 5 0 9 -9 9 -20 0 -11 5
-20 10 -20 6 0 10 -9 10 -20 0 -11 9 -29 20 -40 18 -18 33 -20 154 -20 98 0
136 3 139 13 4 9 8 9 15 -2 9 -12 13 -12 27 2 9 10 21 15 26 12 5 -4 10 0 11
7 0 7 2 2751 3 6098 2 3347 6 6105 10 6130 7 44 22 340 31 628 3 78 9 142 14
142 5 0 11 39 13 88 7 112 30 249 55 312 3 8 6 17 6 20 10 43 32 100 38 100 4
0 8 14 8 30 0 17 3 30 8 30 4 0 16 19 27 43 19 40 34 63 63 92 6 8 12 18 12
24 0 5 9 13 20 16 11 3 20 10 20 15 0 4 11 11 25 14 14 4 25 11 25 16 0 6 6
10 14 10 8 0 22 8 32 17 25 26 263 25 289 0 9 -9 23 -17 31 -17 8 0 14 -4 14
-10 0 -5 8 -10 18 -10 11 0 28 -8 40 -17 11 -10 30 -25 42 -33 12 -8 28 -20
34 -26 7 -6 22 -15 34 -18 12 -4 22 -12 22 -17 0 -5 7 -9 15 -9 9 0 18 -7 21
-15 4 -8 11 -15 18 -15 14 0 48 -24 86 -62 15 -16 31 -28 36 -28 12 0 44 -37
44 -50 0 -6 9 -10 20 -10 11 0 20 -7 20 -15 0 -9 9 -15 25 -15 16 0 25 -6 25
-15 0 -8 5 -15 10 -15 6 0 10 -7 10 -15 0 -9 9 -15 25 -15 16 0 25 -6 25 -15
0 -9 10 -15 26 -15 14 0 22 -4 19 -10 -3 -5 7 -13 22 -16 15 -4 34 -13 41 -21
7 -7 22 -13 33 -13 11 0 27 -7 35 -15 9 -8 26 -15 40 -15 13 0 24 -4 24 -10 0
-5 12 -13 28 -16 15 -4 30 -12 33 -17 4 -5 41 -12 83 -15 42 -2 76 -9 76 -13
0 -5 45 -9 100 -9 55 0 100 4 100 9 0 4 32 11 72 13 40 3 74 11 76 17 2 6 16
11 32 11 16 0 30 7 34 15 3 8 14 15 25 15 11 0 26 7 35 15 8 8 22 15 30 15 9
0 16 7 16 15 0 8 9 15 20 15 11 0 23 7 26 15 3 8 14 17 25 20 11 4 17 11 14
16 -4 5 1 9 9 9 9 0 16 7 16 15 0 8 7 15 15 15 8 0 15 4 15 10 0 15 33 50 47
50 7 0 13 11 13 25 0 14 4 25 10 25 10 0 80 104 80 120 0 6 5 10 10 10 6 0 10
7 10 15 0 8 4 15 8 15 4 0 14 17 21 38 7 20 24 61 37 90 13 29 24 64 24 77 0
14 5 25 10 25 6 0 10 21 10 48 0 30 3 42 9 33 6 -9 10 0 14 30 3 24 10 80 17
124 14 94 7 438 -10 443 -5 2 -10 24 -10 48 0 24 -4 44 -10 44 -5 0 -10 18
-10 40 0 22 -4 40 -10 40 -5 0 -10 11 -10 23 0 22 -15 62 -41 109 -5 10 -9 25
-9 33 0 8 -4 15 -10 15 -5 0 -10 9 -10 20 0 11 -4 20 -10 20 -5 0 -10 11 -10
25 0 14 -4 25 -10 25 -5 0 -10 7 -10 15 0 8 -3 15 -8 15 -4 0 -13 13 -20 29
-7 16 -24 41 -37 55 -14 15 -25 36 -25 47 0 10 -4 19 -10 19 -5 0 -10 7 -10
15 0 8 -7 15 -15 15 -8 0 -15 7 -15 15 0 8 -7 15 -15 15 -8 0 -15 7 -15 15 0
8 -7 15 -15 15 -8 0 -15 7 -15 15 0 8 -4 15 -10 15 -5 0 -10 5 -10 10 0 15
-64 80 -79 80 -6 0 -11 5 -11 11 0 15 -39 49 -57 49 -7 0 -13 5 -13 10 0 6 -8
14 -17 17 -10 4 -24 13 -31 20 -7 7 -22 13 -33 13 -10 0 -19 4 -19 9 0 5 -10
13 -22 17 -12 3 -28 13 -36 20 -7 8 -20 14 -28 14 -8 0 -14 4 -14 9 0 5 -18
11 -40 15 -22 3 -40 10 -40 15 0 5 -16 12 -35 15 -19 4 -35 11 -35 15 0 5 -28
12 -62 15 -35 4 -65 12 -68 16 -6 10 -466 20 -595 13z"/>
<path d="M12997 11013 c-159 -3 -202 -6 -214 -18 -9 -10 -34 -15 -68 -15 -38
0 -54 -4 -59 -15 -4 -10 -20 -15 -51 -15 -28 0 -52 -6 -61 -15 -9 -8 -26 -15
-40 -15 -13 0 -24 -4 -24 -9 0 -5 -18 -12 -40 -16 -22 -4 -40 -11 -40 -15 0
-5 -14 -12 -32 -15 -17 -4 -38 -14 -46 -21 -7 -8 -22 -14 -33 -14 -11 0 -27
-7 -35 -15 -9 -8 -24 -15 -35 -15 -10 0 -19 -4 -19 -10 0 -5 -6 -10 -13 -10
-8 0 -23 -8 -35 -17 -11 -10 -30 -25 -42 -33 -12 -8 -28 -21 -36 -27 -7 -7
-16 -13 -21 -13 -11 0 -44 -25 -84 -62 -16 -16 -36 -28 -44 -28 -8 0 -15 -7
-15 -15 0 -8 -7 -15 -15 -15 -9 0 -18 -7 -21 -15 -4 -8 -12 -15 -20 -15 -8 0
-14 -7 -14 -15 0 -8 -6 -15 -13 -15 -14 0 -47 -35 -47 -50 0 -6 -9 -10 -20
-10 -11 0 -20 -7 -20 -15 0 -8 -4 -15 -10 -15 -5 0 -10 -7 -10 -15 0 -8 -7
-15 -15 -15 -8 0 -15 -7 -15 -15 0 -8 -4 -15 -10 -15 -5 0 -10 -7 -10 -15 0
-8 -6 -15 -12 -15 -7 0 -29 -25 -48 -55 -19 -30 -38 -55 -42 -55 -5 0 -8 -6
-8 -14 0 -8 -9 -18 -20 -21 -11 -3 -20 -13 -20 -21 0 -8 -3 -14 -7 -14 -8 0
-37 -46 -41 -63 -3 -12 -26 -35 -32 -32 -3 2 -7 -6 -7 -18 -1 -12 -7 -23 -13
-25 -5 -2 -10 -10 -10 -18 0 -8 -4 -14 -10 -14 -5 0 -10 -7 -10 -15 0 -8 -4
-15 -9 -15 -5 0 -12 -13 -16 -30 -4 -16 -11 -30 -16 -30 -5 0 -9 -7 -9 -15 0
-8 -4 -15 -9 -15 -5 0 -12 -13 -16 -30 -4 -16 -11 -30 -15 -30 -5 0 -7 -7 -4
-15 4 -8 1 -15 -5 -15 -6 0 -23 -26 -38 -57 -15 -32 -31 -59 -35 -61 -4 -2 -8
-8 -8 -13 0 -5 -20 -52 -45 -103 -25 -52 -45 -107 -45 -121 0 -15 -4 -24 -10
-20 -5 3 -10 -1 -10 -10 0 -24 -52 -169 -62 -173 -4 -2 -8 -17 -8 -33 0 -16
-4 -29 -10 -29 -5 0 -10 -18 -10 -40 0 -22 -4 -40 -10 -40 -5 0 -10 -13 -10
-29 0 -16 -4 -31 -9 -33 -6 -1 -12 -14 -14 -28 -2 -14 -6 -32 -10 -40 -14 -37
-30 -109 -34 -152 -3 -27 -9 -48 -14 -48 -5 0 -9 -20 -9 -45 0 -25 -4 -45 -10
-45 -6 0 -10 -30 -10 -70 0 -40 -4 -70 -10 -70 -5 0 -10 -19 -10 -42 0 -24 -4
-61 -9 -83 -5 -22 -17 -123 -26 -225 -22 -245 -17 -838 9 -1035 9 -71 20 -163
23 -202 3 -40 10 -73 14 -73 5 0 9 -27 9 -60 0 -33 4 -60 10 -60 6 0 10 -27
10 -60 0 -33 4 -60 9 -60 5 0 11 -24 14 -52 3 -29 15 -84 26 -123 11 -38 21
-80 21 -92 0 -13 5 -23 10 -23 6 0 10 -20 10 -45 0 -25 5 -45 10 -45 6 0 10
-13 10 -30 0 -16 5 -30 10 -30 6 0 10 -10 10 -22 0 -27 32 -122 43 -126 4 -2
7 -17 7 -33 0 -16 5 -29 10 -29 6 0 10 -14 10 -31 0 -17 4 -28 10 -24 6 3 10
-3 10 -14 0 -12 4 -21 9 -21 5 0 12 -12 16 -27 3 -15 15 -45 26 -67 10 -22 19
-48 19 -58 0 -10 5 -18 10 -18 6 0 10 -14 10 -31 0 -17 4 -28 10 -24 6 3 10
-3 10 -14 0 -12 3 -21 8 -21 4 0 16 -20 27 -45 11 -25 23 -45 26 -45 3 0 12
-18 19 -40 7 -22 17 -40 22 -40 4 0 8 -9 8 -20 0 -11 5 -20 10 -20 6 0 10 -7
10 -15 0 -8 5 -15 10 -15 6 0 10 -7 10 -15 0 -8 4 -15 10 -15 5 0 12 -11 16
-25 3 -14 10 -25 15 -25 5 0 9 -8 9 -18 0 -10 9 -24 20 -32 11 -8 20 -18 20
-23 0 -4 16 -31 35 -60 19 -28 35 -57 35 -64 0 -7 5 -13 10 -13 6 0 10 -7 10
-15 0 -8 5 -15 10 -15 6 0 10 -7 10 -15 0 -8 7 -15 15 -15 8 0 15 -7 15 -15 0
-8 5 -15 10 -15 6 0 10 -6 10 -14 0 -8 9 -18 20 -21 11 -4 20 -15 20 -27 0
-11 8 -22 20 -25 11 -3 20 -12 20 -19 0 -8 5 -14 10 -14 6 0 10 -7 10 -15 0
-8 7 -15 15 -15 8 0 15 -7 15 -15 0 -8 5 -15 10 -15 6 0 10 -7 10 -15 0 -8 5
-15 10 -15 6 0 10 -7 10 -15 0 -8 6 -15 13 -15 6 -1 21 -12 32 -26 11 -14 30
-37 43 -49 12 -13 22 -29 22 -35 0 -5 7 -10 16 -10 8 0 13 -3 11 -8 -3 -4 7
-16 20 -27 14 -11 38 -32 54 -47 16 -16 34 -28 40 -28 5 0 12 -7 15 -15 3 -8
14 -17 25 -20 11 -4 17 -11 14 -16 -4 -5 1 -9 9 -9 9 0 16 -7 16 -15 0 -8 9
-15 20 -15 11 0 20 -7 20 -15 0 -8 6 -15 14 -15 8 0 16 -7 20 -15 3 -8 12 -15
21 -15 8 0 15 -7 15 -15 0 -8 9 -15 20 -15 11 0 20 -7 20 -15 0 -9 9 -15 25
-15 16 0 25 -6 25 -15 0 -8 9 -15 20 -15 11 0 20 -7 20 -15 0 -9 9 -15 25 -15
16 0 25 -6 25 -15 0 -10 10 -15 30 -15 20 0 30 -5 30 -15 0 -9 9 -15 25 -15
14 0 25 -4 25 -10 0 -5 12 -13 27 -16 15 -4 34 -13 41 -21 7 -7 24 -13 38 -13
15 0 24 -6 24 -15 0 -10 10 -15 30 -15 17 0 30 -4 30 -9 0 -5 15 -13 33 -16
17 -4 35 -12 38 -17 3 -4 29 -11 57 -15 29 -3 52 -9 52 -14 0 -4 29 -11 65
-14 36 -4 65 -11 65 -15 0 -5 35 -12 78 -15 42 -4 80 -13 84 -19 9 -14 483
-13 501 2 6 5 45 13 85 17 39 4 72 11 72 15 0 4 23 10 51 12 28 3 54 10 58 15
3 6 27 13 54 17 26 4 47 11 47 17 0 5 11 9 24 9 14 0 31 7 40 15 8 8 24 15 36
15 11 0 23 7 26 15 4 8 17 15 29 15 13 0 30 7 39 15 8 8 22 15 31 15 8 0 18 7
21 15 4 8 17 15 30 15 14 0 27 7 30 15 4 8 15 15 25 15 11 0 22 7 25 15 4 8
15 15 25 15 10 0 19 7 19 15 0 8 9 15 20 15 11 0 20 7 20 15 0 8 6 15 14 15 8
0 16 7 20 15 3 8 12 15 21 15 8 0 15 7 15 15 0 8 9 15 20 15 11 0 20 7 20 15
0 13 19 20 43 16 5 -1 6 3 2 9 -3 5 1 13 9 16 9 3 16 12 16 20 0 8 9 14 20 14
11 0 20 7 20 15 0 8 7 15 15 15 8 0 15 6 15 13 0 7 10 19 22 27 12 8 36 30 54
48 18 17 37 32 43 32 6 0 11 7 11 15 0 8 5 15 10 15 6 0 10 5 10 11 0 6 16 25
35 43 19 19 35 38 35 45 0 6 5 11 10 11 6 0 10 6 10 14 0 8 9 18 21 21 11 4
18 9 16 12 -3 2 2 13 11 23 68 74 82 91 82 100 0 5 5 10 10 10 6 0 10 7 10 15
0 8 5 15 10 15 6 0 10 7 10 15 0 8 5 15 12 15 6 0 9 3 5 6 -3 4 7 26 23 50 17
23 30 47 30 53 0 6 5 11 10 11 6 0 10 5 10 10 0 6 9 21 20 33 12 12 23 32 26
44 4 13 10 23 15 23 5 0 9 7 9 15 0 8 5 15 10 15 6 0 10 9 10 20 0 11 5 20 10
20 6 0 10 11 10 25 0 14 3 25 8 25 4 0 16 20 27 45 11 25 23 45 28 45 4 0 7 7
7 15 0 8 5 15 10 15 6 0 10 14 10 30 0 17 4 30 8 30 5 0 17 27 27 60 10 33 22
60 27 60 4 0 8 14 8 30 0 17 5 30 10 30 6 0 10 11 10 25 0 14 5 25 10 25 6 0
10 13 10 29 0 17 5 33 10 36 6 3 10 17 10 31 0 13 4 24 8 24 9 0 42 102 42
130 0 11 5 20 10 20 6 0 10 16 10 35 0 19 5 35 10 35 6 0 10 18 10 40 0 22 4
40 9 40 5 0 11 21 14 48 3 26 12 83 21 127 31 149 37 190 43 274 3 54 8 79 14
70 5 -9 9 24 9 84 0 53 4 97 8 97 17 0 29 561 19 841 -6 148 -14 269 -19 269
-4 0 -8 45 -8 100 0 55 -4 100 -9 100 -5 0 -12 35 -14 78 -6 90 -24 197 -69
402 -5 25 -12 64 -15 88 -3 23 -9 42 -14 42 -5 0 -9 16 -9 35 0 19 -4 35 -10
35 -5 0 -10 10 -10 23 0 23 -30 111 -43 123 -4 4 -7 18 -7 31 0 13 -4 23 -10
23 -5 0 -10 16 -10 36 0 21 -4 33 -10 29 -6 -4 -10 7 -10 24 0 17 -4 31 -10
31 -5 0 -10 14 -10 30 0 17 -4 30 -8 30 -4 0 -16 26 -27 58 -11 31 -23 60 -28
63 -4 3 -9 15 -10 27 0 11 -5 18 -9 16 -4 -3 -8 2 -8 11 0 14 -18 53 -30 65
-3 3 -14 24 -25 47 -11 24 -23 43 -27 43 -5 0 -8 6 -8 13 0 18 -24 67 -32 67
-5 0 -8 5 -8 10 0 6 -16 34 -35 63 -19 28 -35 57 -35 64 0 7 -4 13 -10 13 -5
0 -10 7 -10 15 0 8 -6 15 -14 15 -8 0 -17 14 -21 30 -4 17 -13 30 -21 30 -8 0
-14 7 -14 15 0 8 -4 15 -10 15 -5 0 -10 7 -10 15 0 8 -4 15 -10 15 -5 0 -10 5
-10 11 0 6 -12 23 -27 39 -41 42 -63 69 -63 79 0 6 -9 13 -20 16 -11 3 -20 10
-20 15 0 4 -16 25 -35 44 -19 20 -35 41 -35 46 0 6 -5 10 -10 10 -13 0 -80 68
-80 81 0 5 -9 9 -20 9 -11 0 -20 7 -20 15 0 8 -4 15 -10 15 -5 0 -10 7 -10 15
0 8 -7 15 -15 15 -9 0 -18 7 -21 15 -4 8 -12 15 -20 15 -8 0 -14 7 -14 15 0 8
-9 15 -20 15 -11 0 -20 7 -20 15 0 8 -7 15 -15 15 -8 0 -15 7 -15 15 0 8 -9
15 -20 15 -11 0 -20 5 -20 11 0 14 -41 48 -57 49 -7 0 -13 7 -13 15 0 8 -9 15
-20 15 -11 0 -20 7 -20 15 0 8 -9 15 -20 15 -11 0 -20 7 -20 15 0 8 -9 15 -19
15 -10 0 -21 7 -25 15 -3 8 -14 15 -25 15 -10 0 -21 7 -25 15 -3 8 -12 15 -21
15 -8 0 -15 4 -15 9 0 5 -10 13 -22 17 -12 3 -28 13 -36 20 -7 8 -22 14 -33
14 -10 0 -19 4 -19 9 0 5 -10 13 -22 17 -12 3 -28 13 -36 20 -7 8 -22 14 -33
14 -10 0 -19 5 -19 10 0 6 -11 10 -24 10 -14 0 -31 6 -38 14 -8 7 -29 17 -46
21 -18 3 -32 10 -32 15 0 4 -18 11 -40 15 -22 4 -40 11 -40 16 0 5 -15 9 -34
9 -19 0 -41 7 -50 15 -9 9 -34 15 -66 15 -36 0 -52 4 -56 15 -5 11 -22 15 -65
15 -46 0 -59 3 -59 15 0 12 -18 15 -97 15 -54 0 -127 2 -163 3 -36 2 -154 2
-263 0z m293 -548 c0 -10 11 -15 35 -15 24 0 35 -5 35 -15 0 -10 11 -15 35
-15 24 0 35 -5 35 -15 0 -8 9 -15 19 -15 10 0 21 -7 25 -15 3 -8 10 -15 15
-15 6 0 23 -11 38 -25 89 -81 107 -95 115 -95 5 0 6 -5 3 -10 -3 -6 1 -13 9
-16 9 -3 16 -10 16 -15 0 -6 12 -22 28 -38 39 -40 62 -70 62 -81 0 -6 5 -10
10 -10 6 0 10 -7 10 -15 0 -8 3 -15 8 -15 4 0 16 -20 27 -45 11 -25 23 -45 28
-45 4 0 7 -7 7 -15 0 -8 5 -15 10 -15 6 0 10 -7 10 -15 0 -8 5 -15 10 -15 6 0
10 -9 10 -20 0 -11 4 -20 8 -20 4 0 9 -10 9 -22 1 -13 7 -24 13 -26 5 -2 10
-10 10 -18 0 -8 4 -14 9 -14 5 0 12 -13 16 -30 4 -16 11 -30 16 -30 5 0 9 -13
9 -30 0 -16 5 -30 10 -30 6 0 10 -11 10 -25 0 -14 5 -25 10 -25 6 0 10 -7 10
-15 0 -8 11 -39 25 -69 14 -30 25 -64 25 -75 0 -12 5 -21 10 -21 6 0 10 -13
10 -30 0 -16 5 -30 10 -30 6 0 10 -16 10 -35 0 -19 5 -35 10 -35 6 0 10 -9 10
-19 0 -11 16 -66 35 -122 19 -57 35 -114 35 -126 0 -13 5 -23 10 -23 6 0 10
-20 10 -45 0 -25 5 -45 10 -45 6 0 10 -20 10 -44 0 -25 5 -48 10 -51 6 -3 10
-19 10 -34 0 -16 7 -48 15 -71 8 -23 15 -53 15 -66 0 -13 4 -24 9 -24 10 0 19
-44 28 -127 2 -29 9 -53 14 -53 5 0 9 -18 9 -39 0 -22 5 -43 10 -46 6 -3 10
-21 10 -38 0 -18 7 -54 15 -81 8 -27 15 -64 15 -83 0 -18 5 -33 10 -33 6 0 10
-27 10 -60 0 -33 4 -60 10 -60 6 0 10 -28 10 -65 0 -37 4 -65 10 -65 6 0 10
-28 10 -64 0 -36 5 -68 10 -71 6 -3 10 -23 10 -43 0 -20 5 -53 10 -72 12 -38
28 -177 37 -305 3 -44 9 -84 14 -90 5 -5 9 -55 9 -112 0 -57 4 -103 9 -103 12
0 22 -321 22 -685 0 -326 -9 -555 -22 -555 -5 0 -9 -36 -9 -79 0 -44 -4 -82
-8 -85 -4 -2 -9 -24 -10 -48 -2 -45 -10 -83 -43 -213 -12 -44 -23 -95 -26
-113 -3 -18 -9 -35 -14 -38 -5 -3 -9 -16 -9 -30 0 -13 -4 -24 -10 -24 -5 0
-10 -10 -10 -23 0 -13 -9 -41 -19 -63 -11 -22 -23 -52 -26 -67 -4 -15 -11 -27
-16 -27 -5 0 -9 -7 -9 -15 0 -8 -4 -15 -10 -15 -5 0 -10 -13 -10 -30 0 -16 -4
-30 -10 -30 -5 0 -10 -7 -10 -15 0 -8 -4 -15 -10 -15 -5 0 -10 -5 -10 -11 0
-7 -11 -22 -25 -35 -14 -13 -25 -28 -25 -34 0 -5 -4 -10 -10 -10 -5 0 -10 -5
-10 -11 0 -7 -10 -20 -22 -30 -73 -61 -92 -77 -119 -102 -16 -15 -36 -27 -44
-27 -7 0 -20 -6 -27 -14 -8 -7 -24 -17 -36 -20 -12 -4 -22 -12 -22 -17 0 -5
-13 -9 -29 -9 -16 0 -37 -7 -46 -16 -24 -24 -386 -24 -410 0 -9 9 -30 16 -46
16 -16 0 -29 4 -29 10 0 5 -11 12 -25 16 -14 3 -25 10 -25 14 0 5 -10 12 -22
16 -12 3 -27 12 -34 18 -6 6 -22 18 -34 26 -20 14 -49 36 -77 60 -7 5 -17 10
-23 10 -5 0 -10 7 -10 15 0 8 -4 15 -8 15 -11 0 -52 35 -52 44 0 4 -11 17 -25
30 -14 13 -25 28 -25 35 0 6 -4 11 -10 11 -5 0 -10 7 -10 15 0 8 -4 15 -10 15
-5 0 -10 7 -10 15 0 8 -7 15 -15 15 -8 0 -15 7 -15 15 0 8 -4 15 -10 15 -5 0
-10 7 -10 15 0 8 -4 15 -10 15 -5 0 -10 7 -10 15 0 8 -4 15 -10 15 -5 0 -10 7
-10 15 0 8 -4 15 -10 15 -5 0 -10 9 -10 20 0 10 -11 30 -25 44 -14 14 -25 32
-25 41 0 8 -4 15 -10 15 -5 0 -10 7 -10 15 0 8 -4 15 -10 15 -5 0 -10 11 -10
24 0 13 -4 26 -8 28 -9 4 -82 152 -82 167 0 6 -4 11 -10 11 -5 0 -10 14 -10
30 0 17 -4 30 -10 30 -5 0 -10 14 -10 30 0 17 -4 30 -9 30 -5 0 -15 20 -22 45
-7 25 -16 45 -20 45 -3 0 -14 27 -25 60 -10 33 -22 60 -26 60 -5 0 -8 14 -8
30 0 17 -4 38 -10 48 -17 30 -80 228 -80 250 0 12 -4 22 -10 22 -5 0 -10 14
-10 30 0 17 -4 30 -9 30 -5 0 -11 17 -14 38 -7 55 -27 126 -38 137 -5 5 -9 22
-9 37 0 15 -4 28 -10 28 -5 0 -10 18 -10 40 0 22 -4 40 -10 40 -5 0 -10 20
-10 44 0 25 -4 47 -9 50 -4 3 -11 27 -14 53 -3 27 -11 71 -17 98 -6 28 -13 59
-15 70 -2 11 -8 43 -15 70 -6 28 -14 74 -17 103 -3 28 -9 52 -14 52 -5 0 -9
29 -9 64 0 36 -4 67 -9 70 -4 3 -11 34 -15 68 -10 101 -25 225 -42 348 -9 63
-18 177 -21 253 -2 76 -8 137 -14 137 -5 0 -9 203 -9 530 0 347 3 530 10 530
6 0 10 42 10 105 0 67 4 105 11 105 5 0 8 3 6 8 -5 6 5 79 34 247 5 33 12 77
16 98 3 20 9 37 14 37 5 0 9 18 9 40 0 22 5 40 10 40 6 0 10 13 10 29 0 17 5
33 10 36 6 3 10 17 10 30 0 13 4 26 9 29 4 3 11 24 15 46 3 22 11 40 16 40 6
0 10 9 10 20 0 19 17 58 31 70 3 3 11 21 19 40 19 48 78 140 90 140 6 0 10 4
10 10 0 17 83 110 99 110 4 0 14 11 21 25 7 14 19 25 27 25 7 0 13 7 13 15 0
8 9 15 20 15 11 0 20 7 20 15 0 10 10 15 30 15 20 0 30 5 30 15 0 10 10 15 30
15 18 0 33 6 36 15 4 10 20 15 50 15 32 0 44 4 44 15 0 13 29 15 205 15 176 0
205 -2 205 -15z"/>
<path d="M10810 1045 l0 -635 2495 0 c2451 0 2495 1 2505 19 6 13 10 232 10
635 l0 616 -2505 0 -2505 0 0 -635z"/>
</g>
</svg>
